<svg xmlns="http://www.w3.org/2000/svg" width="360" height="260" viewBox="0 0 360 260"><rect x="0" y="0" width="31" height="30" fill="#ccd3ca"/><rect x="30" y="0" width="31" height="30" fill="#ced4cb"/><rect x="60" y="0" width="31" height="30" fill="#cfd3cb"/><rect x="90" y="0" width="31" height="30" fill="#c7c0b6"/><rect x="120" y="0" width="31" height="30" fill="#c3afa4"/><rect x="150" y="0" width="31" height="30" fill="#c1b1a6"/><rect x="180" y="0" width="31" height="30" fill="#c1bdb4"/><rect x="210" y="0" width="31" height="30" fill="#d1d5cb"/><rect x="240" y="0" width="31" height="30" fill="#d2d7ce"/><rect x="270" y="0" width="31" height="30" fill="#d3d7ce"/><rect x="300" y="0" width="31" height="30" fill="#d2d6ce"/><rect x="330" y="0" width="31" height="30" fill="#d0d4cd"/><rect x="0" y="29" width="31" height="30" fill="#cdd5cc"/><rect x="30" y="29" width="31" height="30" fill="#cfd6cd"/><rect x="60" y="29" width="31" height="30" fill="#cccec4"/><rect x="90" y="29" width="31" height="30" fill="#c5ada2"/><rect x="120" y="29" width="31" height="30" fill="#ccaea2"/><rect x="150" y="29" width="31" height="30" fill="#cdb3a5"/><rect x="180" y="29" width="31" height="30" fill="#c2b3a7"/><rect x="210" y="29" width="31" height="30" fill="#cdcec4"/><rect x="240" y="29" width="31" height="30" fill="#d3d8cf"/><rect x="270" y="29" width="31" height="30" fill="#d4d8cf"/><rect x="300" y="29" width="31" height="30" fill="#d4d8d0"/><rect x="330" y="29" width="31" height="30" fill="#d1d6ce"/><rect x="0" y="58" width="31" height="30" fill="#ccd5cc"/><rect x="30" y="58" width="31" height="30" fill="#ced6cd"/><rect x="60" y="58" width="31" height="30" fill="#c4c4bb"/><rect x="90" y="58" width="31" height="30" fill="#af9386"/><rect x="120" y="58" width="31" height="30" fill="#b19285"/><rect x="150" y="58" width="31" height="30" fill="#c9ada1"/><rect x="180" y="58" width="31" height="30" fill="#ccb2a4"/><rect x="210" y="58" width="31" height="30" fill="#cbbaad"/><rect x="240" y="58" width="31" height="30" fill="#d3d8cf"/><rect x="270" y="58" width="31" height="30" fill="#d4d9d0"/><rect x="300" y="58" width="31" height="30" fill="#d4d9d1"/><rect x="330" y="58" width="31" height="30" fill="#d3d8d0"/><rect x="0" y="87" width="31" height="30" fill="#cdd6cd"/><rect x="30" y="87" width="31" height="30" fill="#cdd6cd"/><rect x="60" y="87" width="31" height="30" fill="#c3c6bc"/><rect x="90" y="87" width="31" height="30" fill="#b49a8e"/><rect x="120" y="87" width="31" height="30" fill="#c8a99e"/><rect x="150" y="87" width="31" height="30" fill="#d1b4a9"/><rect x="180" y="87" width="31" height="30" fill="#d1b3a6"/><rect x="210" y="87" width="31" height="30" fill="#ceb8ad"/><rect x="240" y="87" width="31" height="30" fill="#d4d9d0"/><rect x="270" y="87" width="31" height="30" fill="#d5dad2"/><rect x="300" y="87" width="31" height="30" fill="#d4dad2"/><rect x="330" y="87" width="31" height="30" fill="#d4dad2"/><rect x="0" y="116" width="31" height="30" fill="#cbd5cb"/><rect x="30" y="116" width="31" height="30" fill="#ccd5cc"/><rect x="60" y="116" width="31" height="30" fill="#cad0c6"/><rect x="90" y="116" width="31" height="30" fill="#b59c91"/><rect x="120" y="116" width="31" height="30" fill="#be9b90"/><rect x="150" y="116" width="31" height="30" fill="#cdafa2"/><rect x="180" y="116" width="31" height="30" fill="#cdb6a9"/><rect x="210" y="116" width="31" height="30" fill="#d3d4c9"/><rect x="240" y="116" width="31" height="30" fill="#d4dbd2"/><rect x="270" y="116" width="31" height="30" fill="#d5dcd3"/><rect x="300" y="116" width="31" height="30" fill="#d6dcd4"/><rect x="330" y="116" width="31" height="30" fill="#d5dcd3"/><rect x="0" y="144" width="31" height="30" fill="#cad3ca"/><rect x="30" y="144" width="31" height="30" fill="#cad4ca"/><rect x="60" y="144" width="31" height="30" fill="#cad4ca"/><rect x="90" y="144" width="31" height="30" fill="#b2a89d"/><rect x="120" y="144" width="31" height="30" fill="#ad8a7d"/><rect x="150" y="144" width="31" height="30" fill="#bea18d"/><rect x="180" y="144" width="31" height="30" fill="#c7b4a3"/><rect x="210" y="144" width="31" height="30" fill="#d2d9cf"/><rect x="240" y="144" width="31" height="30" fill="#d2dbd2"/><rect x="270" y="144" width="31" height="30" fill="#d5ddd4"/><rect x="300" y="144" width="31" height="30" fill="#d5dcd4"/><rect x="330" y="144" width="31" height="30" fill="#d4dcd3"/><rect x="0" y="173" width="31" height="30" fill="#c7d3c9"/><rect x="30" y="173" width="31" height="30" fill="#c8d3ca"/><rect x="60" y="173" width="31" height="30" fill="#c8d4ca"/><rect x="90" y="173" width="31" height="30" fill="#c0c8bd"/><rect x="120" y="173" width="31" height="30" fill="#a49484"/><rect x="150" y="173" width="31" height="30" fill="#a78973"/><rect x="180" y="173" width="31" height="30" fill="#c6b3a3"/><rect x="210" y="173" width="31" height="30" fill="#c6cfc7"/><rect x="240" y="173" width="31" height="30" fill="#d0dad1"/><rect x="270" y="173" width="31" height="30" fill="#d3dcd3"/><rect x="300" y="173" width="31" height="30" fill="#d3ddd4"/><rect x="330" y="173" width="31" height="30" fill="#d3dcd3"/><rect x="0" y="202" width="31" height="30" fill="#c5d1c7"/><rect x="30" y="202" width="31" height="30" fill="#c4d1c7"/><rect x="60" y="202" width="31" height="30" fill="#becac0"/><rect x="90" y="202" width="31" height="30" fill="#a2aba3"/><rect x="120" y="202" width="31" height="30" fill="#938e85"/><rect x="150" y="202" width="31" height="30" fill="#af9f91"/><rect x="180" y="202" width="31" height="30" fill="#abadb1"/><rect x="210" y="202" width="31" height="30" fill="#6a767c"/><rect x="240" y="202" width="31" height="30" fill="#a5b1ac"/><rect x="270" y="202" width="31" height="30" fill="#cad5cc"/><rect x="300" y="202" width="31" height="30" fill="#d2dcd2"/><rect x="330" y="202" width="31" height="30" fill="#d3dcd3"/><rect x="0" y="231" width="31" height="30" fill="#c3cfc6"/><rect x="30" y="231" width="31" height="30" fill="#c3c9c0"/><rect x="60" y="231" width="31" height="30" fill="#8e9390"/><rect x="90" y="231" width="31" height="30" fill="#475054"/><rect x="120" y="231" width="31" height="30" fill="#686f75"/><rect x="150" y="231" width="31" height="30" fill="#b5bcc3"/><rect x="180" y="231" width="31" height="30" fill="#64707c"/><rect x="210" y="231" width="31" height="30" fill="#35404c"/><rect x="240" y="231" width="31" height="30" fill="#424d57"/><rect x="270" y="231" width="31" height="30" fill="#6f7a7e"/><rect x="300" y="231" width="31" height="30" fill="#b0bab5"/><rect x="330" y="231" width="31" height="30" fill="#cfd9d0"/></svg>