<svg xmlns="http://www.w3.org/2000/svg" width="360" height="260" viewBox="0 0 360 260" shape-rendering="crispEdges"><rect x="0" y="0" width="30" height="29" fill="#e3e7e8"/><rect x="30" y="0" width="30" height="29" fill="#e3e7e8"/><rect x="60" y="0" width="30" height="29" fill="#e3e7e9"/><rect x="90" y="0" width="30" height="29" fill="#e5e9ea"/><rect x="120" y="0" width="30" height="29" fill="#a59a95"/><rect x="150" y="0" width="30" height="29" fill="#9c7d70"/><rect x="180" y="0" width="30" height="29" fill="#6e564c"/><rect x="210" y="0" width="30" height="29" fill="#878888"/><rect x="240" y="0" width="30" height="29" fill="#e0e4e5"/><rect x="270" y="0" width="30" height="29" fill="#dde1e2"/><rect x="300" y="0" width="30" height="29" fill="#dce0e1"/><rect x="330" y="0" width="30" height="29" fill="#d9ddde"/><rect x="0" y="29" width="30" height="29" fill="#e3e7e8"/><rect x="30" y="29" width="30" height="29" fill="#e3e7e9"/><rect x="60" y="29" width="30" height="29" fill="#e4e8e9"/><rect x="90" y="29" width="30" height="29" fill="#e5e9eb"/><rect x="120" y="29" width="30" height="29" fill="#d4b6a7"/><rect x="150" y="29" width="30" height="29" fill="#c29a88"/><rect x="180" y="29" width="30" height="29" fill="#855d4d"/><rect x="210" y="29" width="30" height="29" fill="#a0928d"/><rect x="240" y="29" width="30" height="29" fill="#e0e4e6"/><rect x="270" y="29" width="30" height="29" fill="#dde1e3"/><rect x="300" y="29" width="30" height="29" fill="#dadfe0"/><rect x="330" y="29" width="30" height="29" fill="#d8dcdd"/><rect x="0" y="58" width="30" height="29" fill="#e3e7e8"/><rect x="30" y="58" width="30" height="29" fill="#e3e7e8"/><rect x="60" y="58" width="30" height="29" fill="#e3e7e9"/><rect x="90" y="58" width="30" height="29" fill="#e5e9ea"/><rect x="120" y="58" width="30" height="29" fill="#d5c7be"/><rect x="150" y="58" width="30" height="29" fill="#c99e8b"/><rect x="180" y="58" width="30" height="29" fill="#795648"/><rect x="210" y="58" width="30" height="29" fill="#bbb5b2"/><rect x="240" y="58" width="30" height="29" fill="#e0e4e5"/><rect x="270" y="58" width="30" height="29" fill="#dde1e2"/><rect x="300" y="58" width="30" height="29" fill="#d9ddde"/><rect x="330" y="58" width="30" height="29" fill="#d6dadb"/><rect x="0" y="87" width="30" height="29" fill="#e3e7e8"/><rect x="30" y="87" width="30" height="29" fill="#e4e8e9"/><rect x="60" y="87" width="30" height="29" fill="#e4e8e9"/><rect x="90" y="87" width="30" height="29" fill="#e4e8ea"/><rect x="120" y="87" width="30" height="29" fill="#adb4ba"/><rect x="150" y="87" width="30" height="29" fill="#917d73"/><rect x="180" y="87" width="30" height="29" fill="#5e554f"/><rect x="210" y="87" width="30" height="29" fill="#657076"/><rect x="240" y="87" width="30" height="29" fill="#b5bcc1"/><rect x="270" y="87" width="30" height="29" fill="#d6dbdc"/><rect x="300" y="87" width="30" height="29" fill="#d8dcdd"/><rect x="330" y="87" width="30" height="29" fill="#d3d7d8"/><rect x="0" y="116" width="30" height="29" fill="#e2e6e8"/><rect x="30" y="116" width="30" height="29" fill="#e4e8e9"/><rect x="60" y="116" width="30" height="29" fill="#8c96a1"/><rect x="90" y="116" width="30" height="29" fill="#39485b"/><rect x="120" y="116" width="30" height="29" fill="#1f3147"/><rect x="150" y="116" width="30" height="29" fill="#9ea0a4"/><rect x="180" y="116" width="30" height="29" fill="#7a8085"/><rect x="210" y="116" width="30" height="29" fill="#0f2131"/><rect x="240" y="116" width="30" height="29" fill="#17293c"/><rect x="270" y="116" width="30" height="29" fill="#1c2d3e"/><rect x="300" y="116" width="30" height="29" fill="#bfc4c7"/><rect x="330" y="116" width="30" height="29" fill="#d0d5d6"/><rect x="0" y="145" width="30" height="29" fill="#e1e5e6"/><rect x="30" y="145" width="30" height="29" fill="#d7dcdf"/><rect x="60" y="145" width="30" height="29" fill="#26374c"/><rect x="90" y="145" width="30" height="29" fill="#1e3045"/><rect x="120" y="145" width="30" height="29" fill="#1f3046"/><rect x="150" y="145" width="30" height="29" fill="#6b7079"/><rect x="180" y="145" width="30" height="29" fill="#46505b"/><rect x="210" y="145" width="30" height="29" fill="#18283b"/><rect x="240" y="145" width="30" height="29" fill="#162739"/><rect x="270" y="145" width="30" height="29" fill="#0b1927"/><rect x="300" y="145" width="30" height="29" fill="#869096"/><rect x="330" y="145" width="30" height="29" fill="#cdd1d2"/><rect x="0" y="174" width="30" height="29" fill="#e1e5e6"/><rect x="30" y="174" width="30" height="29" fill="#9ea7af"/><rect x="60" y="174" width="30" height="29" fill="#1c2d40"/><rect x="90" y="174" width="30" height="29" fill="#192a3d"/><rect x="120" y="174" width="30" height="29" fill="#1b2c40"/><rect x="150" y="174" width="30" height="29" fill="#47505c"/><rect x="180" y="174" width="30" height="29" fill="#293647"/><rect x="210" y="174" width="30" height="29" fill="#132435"/><rect x="240" y="174" width="30" height="29" fill="#091825"/><rect x="270" y="174" width="30" height="29" fill="#142537"/><rect x="300" y="174" width="30" height="29" fill="#55616a"/><rect x="330" y="174" width="30" height="29" fill="#c7cbcc"/><rect x="0" y="203" width="30" height="29" fill="#e0e4e6"/><rect x="30" y="203" width="30" height="29" fill="#5d6a79"/><rect x="60" y="203" width="30" height="29" fill="#575359"/><rect x="90" y="203" width="30" height="29" fill="#6f5e5c"/><rect x="120" y="203" width="30" height="29" fill="#16273a"/><rect x="150" y="203" width="30" height="29" fill="#2c3947"/><rect x="180" y="203" width="30" height="29" fill="#424751"/><rect x="210" y="203" width="30" height="29" fill="#383536"/><rect x="240" y="203" width="30" height="29" fill="#181e26"/><rect x="270" y="203" width="30" height="29" fill="#132537"/><rect x="300" y="203" width="30" height="29" fill="#34434e"/><rect x="330" y="203" width="30" height="29" fill="#c1c6c7"/><rect x="0" y="232" width="30" height="29" fill="#dee2e3"/><rect x="30" y="232" width="30" height="29" fill="#2d3d4d"/><rect x="60" y="232" width="30" height="29" fill="#1c2e44"/><rect x="90" y="232" width="30" height="29" fill="#17283c"/><rect x="120" y="232" width="30" height="29" fill="#15263a"/><rect x="150" y="232" width="30" height="29" fill="#6b7784"/><rect x="180" y="232" width="30" height="29" fill="#a1877a"/><rect x="210" y="232" width="30" height="29" fill="#8d6451"/><rect x="240" y="232" width="30" height="29" fill="#313036"/><rect x="270" y="232" width="30" height="29" fill="#0d1f2f"/><rect x="300" y="232" width="30" height="29" fill="#32404b"/><rect x="330" y="232" width="30" height="29" fill="#bcc0c1"/></svg>